<svg width="24" height="25" viewBox="0 0 24 25" fill="none" xmlns="http://www.w3.org/2000/svg">
<mask id="mask0_462_598" style="mask-type:alpha" maskUnits="userSpaceOnUse" x="0" y="0" width="24" height="25">
<rect y="0.5" width="24" height="24" fill="#D9D9D9"/>
</mask>
<g mask="url(#mask0_462_598)">
<path d="M13.8248 11.5492L9.40797 7.29922L10.8889 5.89922L13.8248 8.72422L19.7226 3.07422L21.1776 4.47422L13.8248 11.5492ZM14.942 22.9992L7.66721 21.0492V22.4992H1.43164V11.4992H9.69377L16.1372 13.7992C16.7088 13.9992 17.1721 14.3492 17.5272 14.8492C17.8823 15.3492 18.0598 15.8992 18.0598 16.4992H20.1383C21.0044 16.4992 21.7405 16.7742 22.3468 17.3242C22.953 17.8742 23.2561 18.5992 23.2561 19.4992V20.4992L14.942 22.9992ZM3.51016 20.4992H5.58868V13.4992H3.51016V20.4992ZM14.8901 20.8992L21.0737 19.0492C21.0217 18.8659 20.9048 18.7284 20.7229 18.6367C20.5411 18.5451 20.3462 18.4992 20.1383 18.4992H15.1499C14.6129 18.4992 14.1279 18.4659 13.6949 18.3992C13.2619 18.3326 12.7942 18.2159 12.2919 18.0492L10.4992 17.4492L11.0968 15.5492L13.1753 16.1992C13.4871 16.2992 13.8508 16.3742 14.2665 16.4242C14.6822 16.4742 15.2538 16.4992 15.9813 16.4992C15.9813 16.3159 15.925 16.1409 15.8124 15.9742C15.6998 15.8076 15.5656 15.6992 15.4097 15.6492L9.33002 13.4992H7.66721V18.9992L14.8901 20.8992Z" fill="#262A2E"/>
</g>
</svg>
