<svg width="123" height="83" viewBox="0 0 123 83" fill="none" xmlns="http://www.w3.org/2000/svg">
<path d="M80.9878 26.8937C80.8394 27.0452 80.6905 27.193 80.5347 27.3525C71.8612 35.985 60.9509 38.9286 56.1642 33.9189C53.9844 31.6367 53.4472 28.0956 54.3355 24.1033C40.0703 25.8118 26.8366 32.5506 16.9172 43.1558C6.99775 53.7611 1.01465 67.5687 0 82.1963H123C122.139 69.7698 117.689 57.8821 110.211 48.0381C102.732 38.1946 92.5627 30.836 80.9878 26.8937ZM34.7678 59.3918C33.6235 59.3918 32.5051 59.0455 31.5537 58.3963C30.6023 57.7476 29.8609 56.8247 29.423 55.7455C28.9851 54.6663 28.8706 53.4789 29.0938 52.333C29.317 51.1871 29.868 50.1351 30.677 49.3088C31.4861 48.483 32.5169 47.9202 33.6391 47.6924C34.7613 47.4646 35.9245 47.5814 36.9816 48.0285C38.0387 48.4755 38.9422 49.2325 39.5779 50.2039C40.2136 51.1754 40.5529 52.317 40.5529 53.4852C40.5522 55.0515 39.9425 56.5537 38.8577 57.6612C37.7729 58.7687 36.3018 59.3912 34.7678 59.3918ZM84.0177 59.3918C82.8735 59.3918 81.7548 59.0455 80.8038 58.3963C79.8524 57.7476 79.1109 56.8247 78.6731 55.7455C78.2352 54.6663 78.1203 53.4789 78.3439 52.333C78.567 51.1871 79.1177 50.1351 79.9271 49.3088C80.7359 48.483 81.7668 47.9202 82.8891 47.6924C84.0115 47.4646 85.1746 47.5814 86.2316 48.0285C87.2886 48.4755 88.192 49.2325 88.8279 50.2039C89.4638 51.1754 89.8029 52.317 89.8029 53.4852C89.8024 55.0515 89.1926 56.5532 88.1079 57.6612C87.0232 58.7687 85.5518 59.3912 84.0177 59.3918Z" fill="#B52426"/>
<path d="M80.9878 26.8974C74.7026 24.7641 68.1217 23.6799 61.4985 23.6866C59.1049 23.6866 56.7134 23.8272 54.3355 24.1075C55.3899 19.3384 58.4722 13.9131 63.1919 9.21165C71.8639 0.572748 82.7773 -2.36717 87.564 2.64525C92.2665 7.56645 89.3091 18.3291 80.9878 26.8974Z" fill="#B52426"/>
</svg>
