<svg width="123" height="119" viewBox="0 0 123 119" fill="none" xmlns="http://www.w3.org/2000/svg">
<g clip-path="url(#clip0_871_744)">
<path d="M70.3584 0.258453C63.0994 8.75361 57.0366 18.4931 52.2563 27.4308H38.206C30.7089 27.4308 24.6324 21.3447 24.6324 13.842C24.6324 10.0933 26.1526 6.69706 28.6075 4.2364C31.0611 1.77966 34.4548 0.258453 38.206 0.258453H70.3584Z" fill="#0EA3FD"/>
<path d="M122.796 13.842C122.796 17.5907 121.276 20.9922 118.821 23.4476C116.367 25.9083 112.973 27.4308 109.223 27.4308H61.0129C66.2734 18.0452 72.8995 8.14805 80.6921 0.258453H109.223C116.72 0.258453 122.796 6.33929 122.796 13.842Z" fill="#0EA3FD"/>
<path d="M69.5003 65.6653C70.0102 68.1602 70.5438 70.5642 71.0973 72.8763H13.5736C6.0764 72.8763 0 66.7956 0 59.2929C0 55.5389 1.52009 52.1427 3.97501 49.6872C6.42993 47.2316 9.82367 45.7094 13.5736 45.7094H43.5677C41.1178 51.5424 39.7687 55.4487 39.5979 55.9454L38.5783 58.9456L41.3378 60.4999C50.6027 65.7181 63.391 65.9236 69.5019 65.6653H69.5003Z" fill="#0EA3FD"/>
<path d="M98.165 59.2929C98.165 63.0469 96.645 66.443 94.1899 68.8982C91.7352 71.3549 88.3413 72.8763 84.5914 72.8763H78.944C78.0199 69.1423 77.1422 65.1588 76.337 60.9187L75.6788 57.46L72.1806 57.8365C72.0283 57.8511 58.1541 59.2766 47.9875 55.2274C48.8456 52.9851 50.1656 49.6803 51.9149 45.7066H84.5914C92.0887 45.7066 98.165 51.7874 98.165 59.29V59.2929Z" fill="#0EA3FD"/>
<path d="M77.7181 95.0517C81.9791 106.661 86.2307 114.321 88.8182 118.437C84.4619 118.794 79.4763 118.995 73.7194 119H73.6383C54.4454 118.995 43.7729 116.749 36.6239 113.944C29.4697 111.134 24.6605 105.239 24.6605 97.7165C24.6605 90.6577 29.7412 89.6598 33.7255 89.6598C37.7097 89.6598 44.7541 95.0781 73.6371 95.0875H73.7177C75.1005 95.0875 76.4351 95.0729 77.7169 95.0489L77.7181 95.0517Z" fill="#0EA3FD"/>
<path d="M122.696 97.7177C122.696 105.239 117.887 111.134 110.733 113.945C107.249 115.314 102.925 116.549 97.192 117.451L97.3056 117.361C97.2197 117.256 91.6769 110.092 85.7567 94.7337C104.732 93.5173 110.269 89.6638 113.63 89.6638C117.614 89.6638 122.695 90.6605 122.695 97.7205L122.696 97.7177Z" fill="#0EA3FD"/>
</g>
<defs>
<clipPath id="clip0_871_744">
<rect width="123" height="119" fill="white"/>
</clipPath>
</defs>
</svg>
