<svg width="128" height="95" viewBox="0 0 128 95" fill="none" xmlns="http://www.w3.org/2000/svg">
<mask id="mask0_871_770" style="mask-type:luminance" maskUnits="userSpaceOnUse" x="0" y="0" width="128" height="95">
<path d="M128 0.974915H0V94.6247H128V0.974915Z" fill="white"/>
</mask>
<g mask="url(#mask0_871_770)">
<path d="M62.5174 94.4871C61.3098 94.4871 59.9068 94.2739 58.3774 93.6519C52.2666 91.1715 47.2406 83.4481 43.4152 70.6807C28.2612 68.8945 16.8532 63.4671 9.401 54.4637C-3.3773 39.0205 0.516933 19.0142 0.690493 18.1717C0.712187 18.0632 0.741115 17.9547 0.773657 17.8463C2.86722 11.0919 6.54812 6.61551 11.7187 4.54003C20.6932 0.942297 30.5536 6.32987 30.9658 6.56127C31.0056 6.58297 31.0452 6.60467 31.085 6.62997C63.5588 26.4555 81.0414 28.6177 87.8138 28.4081C85.93 21.1041 86.013 9.82997 95.5226 1.77393C96.6218 0.841054 98.1912 0.710885 99.4278 1.45213C100.664 2.18975 101.297 3.63247 101.001 5.04263C100.946 5.32467 99.6664 12.5997 106.009 22.6769C108.189 23.8159 115.768 27.3197 124.012 25.9239C125.252 25.7107 126.507 26.2133 127.262 27.2149C128.018 28.2165 128.155 29.5615 127.617 30.6969C124.757 36.7099 115.439 46.2955 99.9122 42.0831C96.7738 47.7347 87.98 60.6937 69.7528 69.2993C71.7162 73.5985 74.3954 81.1051 72.5152 86.9915C71.5716 89.9385 69.5828 92.1983 66.7516 93.5289C66.184 93.8219 64.6508 94.4909 62.5174 94.4909V94.4871ZM50.6612 71.2447C54.5192 82.9057 58.522 86.3227 60.7024 87.3133C62.2608 88.0221 63.3238 87.6785 63.5986 87.5665C63.7034 87.4941 63.6854 87.5195 63.8444 87.4471C65.0196 86.9049 65.7138 86.1311 66.0936 84.9415C67.576 80.3095 63.6962 71.9137 62.221 69.3355C61.74 68.4967 61.6424 67.4879 61.957 66.5731C62.268 65.6583 62.9586 64.9207 63.8518 64.5483C87.105 54.8723 95.0164 36.8727 95.096 36.6919C95.8012 35.0431 97.674 34.2259 99.3554 34.8405C105.987 37.2597 111.689 36.8547 116.303 33.6365C116.654 33.3907 116.986 33.1375 117.301 32.8809C108.681 32.1577 102.234 28.3141 101.887 28.1043C101.456 27.8439 101.091 27.4897 100.816 27.0701C97.4934 22.0045 95.7758 17.3798 94.9224 13.6013C91.708 21.3499 95.2082 29.3553 95.4034 29.7893C95.783 30.6353 95.8012 31.6081 95.4468 32.4687C95.0924 33.3291 94.4018 34.0053 93.534 34.3343C91.643 35.0539 73.7302 40.5463 27.6536 12.437C27.0498 12.1188 19.9447 8.49573 14.2064 10.8171C11.0679 12.0863 8.7393 15.0621 7.2749 19.665C6.9784 21.3645 4.4184 37.9213 14.6439 50.2223C21.2608 58.1843 31.848 62.8669 46.192 64.2011C46.2896 64.2047 46.391 64.2155 46.4886 64.2263C49.6994 64.5157 53.0982 64.6349 56.6816 64.5879C56.696 64.5879 56.7104 64.5879 56.7286 64.5879C58.569 64.5879 60.0732 66.0669 60.0986 67.9145C60.1238 69.7767 58.634 71.3061 56.772 71.3315C54.682 71.3605 52.65 71.3315 50.672 71.2519L50.6612 71.2447Z" fill="url(#paint0_linear_871_770)"/>
<path d="M23.8572 86.7462C22.7942 86.7462 22.0132 86.5944 21.7058 86.522C18.5962 85.8494 16.2459 84.0668 14.9045 81.3622C11.0319 73.5556 17.1571 60.0904 17.8694 58.579C18.6613 56.894 20.6716 56.1708 22.3566 56.9664C24.0416 57.7618 24.7612 59.7686 23.9694 61.4536C21.6624 66.3674 19.2037 74.861 20.9464 78.3684C21.2502 78.9758 21.7456 79.6376 23.1558 79.9376C23.2028 79.9484 23.2534 79.9594 23.3004 79.9702C23.3004 79.9702 24.9782 80.2992 26.4642 79.0518C27.8094 77.92 30.0186 74.6368 29.6896 65.355C29.6244 63.4928 31.078 61.9308 32.9402 61.8658C34.8024 61.8078 36.3642 63.2542 36.4294 65.1164C36.762 74.5248 34.806 81.0042 30.608 84.3742C28.1818 86.3232 25.6326 86.7498 23.8608 86.7498L23.8572 86.7462Z" fill="url(#paint1_linear_871_770)"/>
<path d="M51.0006 70.2069C49.84 70.2069 48.7082 69.6067 48.0828 68.5293C35.977 47.6877 2.39688 32.2843 2.057 32.1287C0.361182 31.3587 -0.390908 29.3627 0.379262 27.6669C1.14582 25.9711 3.14536 25.2189 4.84118 25.9855C6.29836 26.6473 40.7174 42.4195 53.915 65.1413C54.8516 66.7503 54.302 68.8149 52.693 69.7513C52.1614 70.0623 51.5756 70.2069 51.0044 70.2069H51.0006Z" fill="url(#paint2_linear_871_770)"/>
<path d="M36.3028 34.5592C38.2256 34.5592 39.7848 33.0002 39.7848 31.0772C39.7848 29.1542 38.2256 27.5952 36.3028 27.5952C34.3796 27.5952 32.8206 29.1542 32.8206 31.0772C32.8206 33.0002 34.3796 34.5592 36.3028 34.5592Z" fill="url(#paint3_linear_871_770)"/>
</g>
<defs>
<linearGradient id="paint0_linear_871_770" x1="63.9708" y1="0.973816" x2="63.9708" y2="94.4909" gradientUnits="userSpaceOnUse">
<stop stop-color="#59DD56"/>
<stop offset="1" stop-color="#569CDD"/>
</linearGradient>
<linearGradient id="paint1_linear_871_770" x1="25.0481" y1="56.6431" x2="25.0481" y2="86.7498" gradientUnits="userSpaceOnUse">
<stop stop-color="#59DD56"/>
<stop offset="1" stop-color="#569CDD"/>
</linearGradient>
<linearGradient id="paint2_linear_871_770" x1="27.2245" y1="25.6853" x2="27.2245" y2="70.2069" gradientUnits="userSpaceOnUse">
<stop stop-color="#59DD56"/>
<stop offset="1" stop-color="#569CDD"/>
</linearGradient>
<linearGradient id="paint3_linear_871_770" x1="36.3027" y1="27.5952" x2="36.3027" y2="34.5592" gradientUnits="userSpaceOnUse">
<stop stop-color="#59DD56"/>
<stop offset="1" stop-color="#569CDD"/>
</linearGradient>
</defs>
</svg>
