<svg width="100" height="128" viewBox="0 0 100 128" fill="none" xmlns="http://www.w3.org/2000/svg">
<path d="M23.2093 118.957C23.2093 122.178 23.1849 125.138 23.1493 127.76C23.4796 126.527 23.9807 123.563 24.174 119.635C24.174 119.631 24.174 119.626 24.174 119.622C23.8493 119.4 23.5284 119.175 23.2093 118.946V118.957Z" fill="#292C56"/>
<path d="M90.0546 22.3756C90.1785 22.2743 90.2948 22.1673 90.3999 22.0528C93.0275 19.2375 94.1536 17.417 94.1536 12.8563C94.1536 8.2956 90.4562 4.59824 85.8955 4.59824C81.3348 4.59824 76.8867 6.47507 76.5114 18.8622C76.5095 18.926 76.5114 18.9879 76.5114 19.0517C76.3894 18.9241 76.166 14.7707 76.0422 14.643C67.3074 5.61361 55.0629 0 41.5084 0C14.9738 0 0.687332 26.2982 0.687332 52.8328C0.687332 53.3565 0.694839 53.8782 0.7061 54.4C0.709854 54.5614 0.715485 54.7209 0.719238 54.8823C0.730499 55.2521 0.74176 55.6218 0.758652 55.9916C0.766159 56.1661 0.773666 56.3406 0.783051 56.5152C0.801819 56.8999 0.826218 57.2847 0.852493 57.6694C0.861878 57.8083 0.869385 57.9472 0.880646 58.0842C0.918183 58.606 0.96135 59.1277 1.01202 59.6476C1.01765 59.7077 1.02516 59.7659 1.03079 59.8259C1.07584 60.2858 1.12463 60.7456 1.17906 61.2016C1.19595 61.3499 1.21472 61.4982 1.23349 61.6465C1.28041 62.0274 1.33109 62.4084 1.38551 62.7894C1.40616 62.9377 1.4268 63.086 1.44933 63.2343C1.51314 63.6678 1.58258 64.1013 1.6539 64.533C1.66704 64.61 1.6783 64.6869 1.69144 64.7639C1.78153 65.2875 1.87724 65.8111 1.97859 66.331C1.98985 66.393 2.00299 66.453 2.01613 66.515C2.10434 66.9635 2.19818 67.4102 2.29578 67.8531C2.32205 67.9751 2.35021 68.0971 2.37836 68.2191C2.46845 68.6226 2.56417 69.0243 2.66176 69.424C2.68804 69.5329 2.71431 69.6399 2.74059 69.7487C2.99584 70.7679 3.27361 71.7776 3.57765 72.7742C3.59455 72.8305 3.61331 72.8868 3.63021 72.9431C3.6546 73.0201 3.679 73.097 3.7034 73.174C3.70716 73.1871 3.71279 73.2021 3.71654 73.2152C3.99056 71.314 4.37719 69.4165 4.88205 67.5322C5.59337 64.8784 6.51865 62.3184 7.63912 59.8691C7.63912 59.8541 7.63912 59.8409 7.63724 59.8259C7.63724 59.8109 7.63724 59.7959 7.63537 59.779C7.07232 48.3303 13.6412 32.5649 14.392 31.4388C15.1427 30.3127 15.7377 29.9374 16.0811 29.9374C17.5826 29.9374 17.8979 33.7342 18.3033 34.6501C18.7087 35.566 20.0994 36.694 21.5239 36.694C22.2634 36.694 22.9484 36.465 23.5171 36.0802C26.6589 33.4902 30.4164 31.619 34.5398 30.7238C36.2327 30.3559 38.2277 30.1269 38.4154 29.3762C38.6031 28.6255 37.1955 27.4055 36.0694 26.6548C34.9433 25.904 35.131 25.904 32.5972 25.2472C35.2248 25.2472 37.477 26.9363 38.8959 28.4077C43.1488 27.9479 40.5738 27.7809 52.0225 27.7809C63.4711 27.7809 76.7554 32.9234 85.7886 40.7967C87.564 42.3432 89.0899 44.2032 90.5914 44.2032C92.0928 44.2032 92.883 42.6754 93.5662 40.9018C94.3713 38.8091 94.8142 36.5382 94.8142 34.1621C94.8142 28.785 93.2696 24.8755 90.0584 22.3794L90.0546 22.3756ZM90.6815 32.4692C89.8519 32.4692 89.18 31.7973 89.18 30.9677C89.18 30.1382 89.8519 29.4663 90.6815 29.4663C91.511 29.4663 92.1829 30.1382 92.1829 30.9677C92.1829 31.7973 91.511 32.4692 90.6815 32.4692Z" fill="#292C56"/>
<path d="M73.3283 118.064L73.257 118.105C72.3598 118.623 72.0558 119.766 72.5757 120.66C72.9229 121.257 73.5535 121.591 74.201 121.591C74.5201 121.591 74.8448 121.508 75.1413 121.337L75.2126 121.296C76.1097 120.778 76.4138 119.635 75.8939 118.742C75.374 117.85 74.2254 117.546 73.3283 118.064Z" fill="#292C56"/>
<path d="M92.8755 55.9446C86.4605 44.8319 76.1022 36.8854 63.7076 33.5634C51.3149 30.2433 38.3704 31.9474 27.2577 38.3625C18.5266 43.4036 11.7494 50.8809 7.63538 59.8672C7.81743 63.6002 7.88312 66.5544 8.2247 69.3415C10.2198 61.2899 14.4746 53.8013 20.7131 47.908C22.0814 48.3378 23.2056 49.3532 23.7536 50.6801C24.3711 52.1722 24.0558 53.897 22.9503 55.0775L20.7432 57.433C20.6456 57.5381 20.5592 57.6544 20.4861 57.7783L15.473 66.4924L11.0174 69.6643C10.1879 70.2555 9.98329 71.3966 10.5576 72.2374L12.2242 74.6717C11.2633 74.8143 10.4018 74.9307 9.82939 74.9945C9.71866 74.8894 9.60417 74.7824 9.48406 74.6717C9.41649 74.6097 9.34517 74.5441 9.2701 74.4765C9.66986 75.8203 10.1879 77.2129 10.8673 78.7181C11.3628 78.6543 11.9521 78.5699 12.6597 78.4666C14.2437 78.232 15.8184 77.9693 15.8334 77.9655C16.8957 77.7872 17.6821 76.7174 17.3086 75.4543C17.2898 75.3905 17.2579 75.3286 17.2204 75.2741L14.7711 71.6819L18.2902 69.165C18.3634 69.1125 18.4234 69.0468 18.4666 68.9699L23.7123 59.8109L25.7712 57.6038C27.8751 55.3478 28.4757 52.0483 27.3008 49.1955C26.6083 47.5139 25.3958 46.1119 23.8812 45.1697C25.5216 43.8804 27.2708 42.6886 29.1289 41.6169C35.9493 37.6793 43.3909 35.7706 50.7556 35.6974L47.4036 39.9015L34.9771 44.2576C34.4722 44.434 34.0668 44.8188 33.8641 45.3124L30.3939 53.7262C30.148 54.3231 30.2249 55.0062 30.6022 55.5317L35.6715 62.6318C34.9452 63.2943 34.2395 64.259 33.3949 65.4564C33.0252 65.9819 32.6761 66.4774 32.434 66.7552C32.2238 66.9973 32.0136 67.2338 31.8052 67.4684C30.7148 68.6958 29.5868 69.9627 28.7873 71.6575C27.0268 75.3849 27.3815 79.7166 29.7163 82.9635C31.9723 86.1035 35.6922 87.6988 39.6617 87.2314C40.3092 87.1564 40.9116 87.0062 41.4953 86.8617C43.1038 86.4638 43.6143 86.4244 44.1304 86.9067C44.3819 87.1413 44.4044 87.1864 44.3988 87.984C44.395 88.4908 44.3913 89.1233 44.5658 89.844C44.8455 90.9982 45.5699 91.794 46.1517 92.434C46.4408 92.7531 46.7411 93.0815 46.833 93.303C47.4186 94.705 47.1633 95.482 46.6041 97.1843C46.5553 97.3307 46.5083 97.4789 46.4577 97.631C45.6093 100.259 46.7917 102.864 47.8353 105.161C48.175 105.908 48.494 106.612 48.7042 107.235C50.3915 112.242 51.6565 113.389 52.6719 113.851C53.203 114.093 53.7548 114.198 54.3103 114.198C57.0167 114.198 59.8395 111.685 61.1364 110.093C61.9509 109.093 62.1517 108.092 62.2981 107.36C62.3713 106.996 62.4295 106.709 62.5384 106.522C62.7054 106.234 62.9044 106.011 63.154 105.73C63.657 105.163 64.2838 104.457 64.6892 103.181C64.997 102.21 65.2204 101.972 65.9636 101.182C66.0931 101.045 66.2301 100.899 66.3784 100.737C68.8783 98.0176 68.2346 95.9399 67.5533 93.7384C66.979 91.8879 67.9831 90.7036 70.4098 88.4439C71.4608 87.4642 72.5494 86.4507 73.3902 85.2345C73.7581 84.7015 74.8767 83.0818 74.1841 81.4752C73.5047 79.9005 71.7799 79.6359 70.3929 79.4238C69.8449 79.3394 69.0172 79.2136 68.7544 79.0409C67.5927 78.2827 66.8832 76.6968 66.1963 75.1653C66.0593 74.8612 65.9242 74.5591 65.7872 74.2663C65.5432 73.7445 65.2992 73.1139 65.0421 72.4458C64.3589 70.6778 63.5856 68.6752 62.2681 67.2788C61.0838 66.0232 58.8523 65.4189 56.8816 64.8859C56.0633 64.6644 55.3032 64.458 54.9297 64.2815C54.8021 64.2215 54.6613 64.1989 54.5243 64.2271C53.3156 64.4767 52.6099 64.7413 52.105 65.1467C51.9887 65.2406 51.6396 65.5503 51.4369 66.0457C50.735 65.7098 49.7646 65.0604 49.1866 64.6738C49.3818 63.8893 49.2053 63.2605 49.0195 62.8664C47.9704 60.648 44.4907 60.8225 43.8038 60.8807C43.4134 60.9126 42.9198 60.9314 42.3981 60.9501C41.5779 60.9783 40.6714 61.0121 39.7761 61.1116L40.5851 58.8575C40.8103 58.2306 41.4052 57.8121 42.0734 57.8121H45.2527C46.193 57.8121 47.0338 57.1477 47.1671 56.2224C47.3341 55.0682 46.4389 54.0753 45.3109 54.0753H44.2205C41.2157 54.0753 38.4661 55.65 36.9234 58.1274L34.1119 54.2067L36.8783 47.5308L49.0758 43.2741C49.4099 43.1578 49.7046 42.9494 49.9261 42.6735L55.3482 35.9019C69.203 37.2138 82.2451 44.9483 89.7168 57.8346C91.7081 61.2673 93.1795 64.8802 94.1592 68.5776L93.3597 69.287C92.3049 70.2236 91.6931 71.5711 91.6818 72.9788L90.3793 69.4128C90.186 68.8816 89.8988 68.3937 89.531 67.9639L86.6613 64.6175C86.1095 63.9756 85.3044 63.6059 84.456 63.6059H80.4715C80.1919 63.6059 79.9141 63.6716 79.6645 63.7992C77.9866 64.655 77.6244 66.5281 78.4971 67.8325L78.7842 68.2623C76.9468 69.8351 74.8222 71.0926 72.5607 71.9428L68.6644 64.5124V62.8382C68.6644 62.3259 68.4541 61.8341 68.0844 61.4813L64.3946 57.9604C64.3307 57.9003 64.2557 57.8534 64.1712 57.8233L60.7704 56.6278C59.2839 56.1042 57.5835 57.5662 58.5463 59.6195C58.6195 59.7753 58.7528 59.8972 58.9161 59.9554L62.2887 61.1416L64.9088 63.6434V65.2687C64.9088 65.3682 64.9332 65.4658 64.9782 65.554L69.9781 75.1315C70.4154 75.9686 71.4064 76.3514 72.2904 76.023L73.7037 75.5012C76.99 74.2888 80.0342 72.3406 82.5097 69.8651C83.1422 69.2326 83.2398 68.2416 82.7443 67.4965L82.6449 67.3464H83.8367C83.9286 67.3464 84.0168 67.3877 84.0769 67.4571L86.6557 70.477C86.6801 70.5051 86.6988 70.5389 86.712 70.5727L89.4184 78.0124C89.4484 78.0931 89.4916 78.1682 89.5498 78.2302C90.0002 78.7087 90.5407 78.9321 91.0681 78.9321C91.5598 78.9321 92.0403 78.7388 92.395 78.3822L93.6093 77.1679C94.3788 76.3984 94.9081 75.4243 95.1615 74.347C97.0402 89.4011 91.1376 104.971 78.6622 114.765C77.4254 115.735 77.737 117.944 79.976 118.246C80.1468 118.269 80.3232 118.224 80.4603 118.12C89.7506 111.035 96.1337 100.752 98.4046 89.2453C100.655 77.8454 98.6899 66.0195 92.8736 55.9446H92.8755ZM38.2503 65.2856C39.0873 64.8164 41.0299 64.7489 42.4487 64.6982C43.0174 64.6775 43.5542 64.6588 44.0347 64.6194C44.288 64.5987 44.5696 64.6025 44.8342 64.6231C44.716 64.9253 44.6765 65.2575 44.7291 65.5878C44.8192 66.1677 45.1777 66.6707 45.6975 66.9485C46.0504 67.1362 46.5402 67.4609 47.0583 67.8062C48.5241 68.7803 50.1869 69.8839 51.7485 69.9815C53.1692 70.0734 53.9594 69.2683 54.2972 68.9248C54.3235 68.8967 54.3497 68.8704 54.376 68.846C54.5675 68.6921 54.7458 68.4838 54.879 68.2341C55.1793 68.3186 55.4946 68.4049 55.8174 68.4913C56.9285 68.7916 58.9968 69.349 59.4547 69.8294C60.2655 70.6853 60.8999 72.3163 61.4573 73.7558C61.7388 74.4821 62.0053 75.169 62.3056 75.8053C62.4333 76.0774 62.5609 76.3589 62.6885 76.6442C63.5537 78.568 64.5353 80.747 66.6186 82.1021C67.5627 82.7158 68.7207 82.8941 69.7417 83.0499C69.8655 83.0686 70.0063 83.0911 70.1508 83.1137C69.5446 83.9564 68.6812 84.7559 67.7691 85.6005C65.4456 87.7551 62.5553 90.4352 63.8859 94.7125C64.5147 96.732 64.5428 96.9497 63.5331 98.0439C63.3961 98.194 63.2666 98.3292 63.1465 98.4568C62.2812 99.3745 61.5981 100.099 61.0313 101.874C60.8661 102.391 60.654 102.629 60.2674 103.063C59.9577 103.41 59.573 103.841 59.2183 104.446C58.7922 105.17 58.6514 105.87 58.5388 106.431C58.4281 106.983 58.3643 107.261 58.1466 107.528C57.6511 108.134 56.7258 109.012 55.778 109.613C54.8959 110.17 54.3816 110.247 54.2052 110.236C54.0044 110.022 53.2799 109.085 52.1839 105.848C51.9136 105.048 51.5382 104.226 51.176 103.432C50.3765 101.679 49.5507 99.8682 49.9523 98.6294C49.9992 98.4831 50.0462 98.3404 50.0931 98.2015C50.735 96.2534 51.3412 94.4122 50.2188 91.734C49.8773 90.9175 49.333 90.3226 48.8525 89.7952C48.5428 89.4555 48.19 89.0689 48.1356 88.8474C48.0699 88.5771 48.0717 88.2637 48.0736 87.9015C48.0792 86.9255 48.0905 85.4503 46.6172 84.0765C44.5414 82.1415 42.1184 82.7383 40.5156 83.1324C40.0239 83.2544 39.5584 83.3689 39.1455 83.4158C36.5086 83.7236 34.155 82.7327 32.6855 80.6982C31.1483 78.568 30.925 75.7039 32.1036 73.2209C32.6742 72.0197 33.5357 71.0531 34.5323 69.9364C34.75 69.6924 34.9696 69.4466 35.1892 69.1932C35.5551 68.7728 35.9587 68.2041 36.3828 67.6016C36.8914 66.8828 37.8374 65.5446 38.2484 65.2913L38.2503 65.2856Z" fill="#292C56"/>
<path d="M19.7522 90.7317C19.9812 90.9044 20.2458 91.0226 20.5273 91.0789L25.1913 91.9854C25.7862 92.1018 26.2836 92.4509 26.5895 92.9727C26.8954 93.4925 26.9611 94.095 26.7715 94.6693C26.383 95.848 26.3812 97.0961 26.7659 98.2766L27.3609 100.097C27.7156 101.186 27.115 102.359 26.0227 102.713L24.1571 103.316C23.6785 103.472 23.2919 103.808 23.0686 104.243C24.2209 109.855 24.3823 115.316 24.1721 119.62C27.6349 121.987 31.4148 123.907 35.4294 125.309C40.5738 127.103 45.9453 128 51.3074 128C57.3545 128 63.3904 126.861 69.0716 124.586C69.2311 124.522 69.3588 124.396 69.4263 124.239C70.3197 122.161 68.5799 120.757 67.1122 121.322C52.4691 126.951 36.6174 124.393 24.7746 115.504L26.4562 106.726L27.267 106.463C30.3281 105.469 32.0098 102.169 31.0169 99.1062L30.2737 96.8164C30.223 96.6588 30.2343 96.4917 30.2944 96.3378C30.97 94.6543 30.8236 92.7606 29.9134 91.2084C29.0669 89.7652 27.6386 88.7535 25.9964 88.4307L21.7604 87.603L13.5868 81.3889C13.1364 81.0473 12.5602 80.9309 12.014 81.0604C13.0725 83.0968 14.4164 85.3621 16.1243 87.9822L19.7541 90.7299L19.7522 90.7317Z" fill="#292C56"/>
<path d="M22.1564 108.588L21.3963 112.542C18.0968 109.536 15.199 105.981 12.8473 101.927C9.97766 96.9797 8.18529 91.7039 7.39514 86.3681L9.33015 85.7412C8.68828 84.6958 8.08206 83.6204 7.50963 82.5149L7.08359 82.6538C7.06294 82.2954 7.04793 81.9369 7.03479 81.5784C6.59749 80.6907 6.18083 79.7879 5.78857 78.8683C5.38505 77.9242 5.00405 76.9614 4.64746 75.9854C4.62118 75.916 4.59678 75.8447 4.57238 75.7734C4.42411 75.3623 4.2796 74.9476 4.13883 74.5328C4.10505 74.4352 4.07315 74.3376 4.04124 74.2381C3.92863 73.8984 3.81977 73.5549 3.71279 73.2115C2.18693 83.8156 4.23643 94.5567 9.67737 103.978C13.1045 109.913 17.7327 114.999 23.2093 118.944C23.2093 118.556 23.2093 118.165 23.2093 117.769C23.2093 114.611 22.8433 111.536 22.1564 108.586V108.588Z" fill="#292C56"/>
<path d="M80.0886 96.3716L79.1859 92.9839C78.9888 92.2445 78.3582 91.6983 77.5943 91.6082C76.8304 91.52 76.0891 91.8991 75.7231 92.5729C75.5167 92.9502 75.3327 93.3499 75.1526 93.7365C74.8523 94.3878 74.5407 95.0597 74.216 95.4313C74.034 95.6397 73.5666 95.8649 73.1143 96.0826C72.0333 96.6025 70.5543 97.3119 69.9894 99.1062C69.6384 100.219 69.7698 101.099 69.8655 101.741C69.9481 102.299 69.9669 102.492 69.8167 102.843L69.7979 102.886C69.2011 104.282 68.09 106.88 69.6478 109.089C70.7589 110.666 71.9282 111.071 72.8365 111.071C73.013 111.071 73.1819 111.056 73.3377 111.032C75.252 110.72 76.6916 108.738 77.8665 104.793L80.0736 97.387C80.1712 97.0567 80.1768 96.7076 80.0886 96.3754V96.3716ZM74.2686 103.727C73.6698 105.739 73.1387 106.677 72.8328 107.094C72.7971 107.049 72.7596 106.998 72.7183 106.94C72.3598 106.431 72.8947 105.18 73.2494 104.35L73.2682 104.307C73.8406 102.971 73.6867 101.944 73.576 101.193C73.5047 100.713 73.4784 100.506 73.5685 100.223C73.6417 99.9902 74.0809 99.7631 74.7434 99.4459C75.0362 99.3051 75.3609 99.1493 75.6874 98.9617L74.2667 103.727H74.2686Z" fill="#292C56"/>
<path d="M53.6891 54.2086C52.7112 53.867 51.6396 54.3794 51.298 55.3534C50.9545 56.3275 51.4688 57.3935 52.4485 57.7351L52.5742 57.7783C52.7788 57.8496 52.989 57.8834 53.1955 57.8834C53.9706 57.8834 54.6951 57.4011 54.9672 56.6334C55.3107 55.6594 54.7964 54.5933 53.8167 54.2517L53.691 54.2086H53.6891Z" fill="#292C56"/>
<path d="M23.2093 118.957C23.2093 122.178 23.1849 125.138 23.1493 127.76C23.4796 126.527 23.9807 123.563 24.174 119.635C24.174 119.631 24.174 119.626 24.174 119.622C23.8493 119.4 23.5284 119.175 23.2093 118.946V118.957Z" fill="#292C56"/>
</svg>
