<svg width="24" height="25" viewBox="0 0 24 25" fill="none" xmlns="http://www.w3.org/2000/svg">
<mask id="mask0_462_604" style="mask-type:alpha" maskUnits="userSpaceOnUse" x="0" y="0" width="24" height="25">
<rect y="0.5" width="24" height="24" fill="#D9D9D9"/>
</mask>
<g mask="url(#mask0_462_604)">
<path d="M2 19.1039C1.71667 19.1039 1.47917 19.0224 1.2875 18.8594C1.09583 18.6965 1 18.4945 1 18.2536V15.7029C1 15.2353 1.19583 14.8349 1.5875 14.5019C1.97917 14.1689 2.45 14.0024 3 14.0024H6.275C6.60833 14.0024 6.925 14.0733 7.225 14.215C7.525 14.3567 7.76667 14.548 7.95 14.7889C8.43333 15.3415 9.02917 15.7738 9.7375 16.0855C10.4458 16.3973 11.2 16.5531 12 16.5531C12.8167 16.5531 13.5792 16.3973 14.2875 16.0855C14.9958 15.7738 15.5833 15.3415 16.05 14.7889C16.2667 14.548 16.5208 14.3567 16.8125 14.215C17.1042 14.0733 17.4083 14.0024 17.725 14.0024H21C21.55 14.0024 22.0208 14.1689 22.4125 14.5019C22.8042 14.8349 23 15.2353 23 15.7029V18.2536C23 18.4945 22.9042 18.6965 22.7125 18.8594C22.5208 19.0224 22.2833 19.1039 22 19.1039H17C16.7167 19.1039 16.4792 19.0224 16.2875 18.8594C16.0958 18.6965 16 18.4945 16 18.2536V17.1696C15.4167 17.5238 14.7875 17.7931 14.1125 17.9773C13.4375 18.1615 12.7333 18.2536 12 18.2536C11.2833 18.2536 10.5833 18.158 9.9 17.9667C9.21667 17.7754 8.58333 17.5026 8 17.1483V18.2536C8 18.4945 7.90417 18.6965 7.7125 18.8594C7.52083 19.0224 7.28333 19.1039 7 19.1039H2ZM12 15.7029C11.3667 15.7029 10.7667 15.5789 10.2 15.3309C9.63333 15.0829 9.15833 14.7393 8.775 14.3C8.49167 13.9457 8.1375 13.6659 7.7125 13.4604C7.2875 13.2549 6.825 13.1522 6.325 13.1522C6.69167 12.6279 7.46667 12.2134 8.65 11.9087C9.83333 11.604 10.95 11.4517 12 11.4517C13.05 11.4517 14.1667 11.604 15.35 11.9087C16.5333 12.2134 17.3083 12.6279 17.675 13.1522C17.1917 13.1522 16.7333 13.2549 16.3 13.4604C15.8667 13.6659 15.5083 13.9457 15.225 14.3C14.8583 14.7535 14.3917 15.1006 13.825 15.3415C13.2583 15.5825 12.65 15.7029 12 15.7029ZM4 13.1522C3.16667 13.1522 2.45833 12.9042 1.875 12.4082C1.29167 11.9122 1 11.31 1 10.6015C1 9.89292 1.29167 9.29066 1.875 8.79469C2.45833 8.29871 3.16667 8.05073 4 8.05073C4.83333 8.05073 5.54167 8.29871 6.125 8.79469C6.70833 9.29066 7 9.89292 7 10.6015C7 11.31 6.70833 11.9122 6.125 12.4082C5.54167 12.9042 4.83333 13.1522 4 13.1522ZM20 13.1522C19.1667 13.1522 18.4583 12.9042 17.875 12.4082C17.2917 11.9122 17 11.31 17 10.6015C17 9.89292 17.2917 9.29066 17.875 8.79469C18.4583 8.29871 19.1667 8.05073 20 8.05073C20.8333 8.05073 21.5417 8.29871 22.125 8.79469C22.7083 9.29066 23 9.89292 23 10.6015C23 11.31 22.7083 11.9122 22.125 12.4082C21.5417 12.9042 20.8333 13.1522 20 13.1522ZM12 10.6015C11.1667 10.6015 10.4583 10.3535 9.875 9.85749C9.29167 9.36151 9 8.75926 9 8.05073C9 7.34219 9.29167 6.73994 9.875 6.24396C10.4583 5.74799 11.1667 5.5 12 5.5C12.8333 5.5 13.5417 5.74799 14.125 6.24396C14.7083 6.73994 15 7.34219 15 8.05073C15 8.75926 14.7083 9.36151 14.125 9.85749C13.5417 10.3535 12.8333 10.6015 12 10.6015Z" fill="#262A2E"/>
</g>
</svg>
