<svg width="24" height="25" viewBox="0 0 24 25" fill="none" xmlns="http://www.w3.org/2000/svg">
<mask id="mask0_462_620" style="mask-type:alpha" maskUnits="userSpaceOnUse" x="0" y="0" width="24" height="25">
<rect y="0.5" width="24" height="24" fill="#D9D9D9"/>
</mask>
<g mask="url(#mask0_462_620)">
<path d="M12.1831 19.5V16.4C11.3204 16.2167 10.5502 15.8708 9.87239 15.3625C9.19457 14.8542 8.69721 14.2167 8.38031 13.45C7.05989 13.3 5.95513 12.7542 5.06605 11.8125C4.17696 10.8708 3.73242 9.76667 3.73242 8.5V7.5C3.73242 6.95 3.93929 6.47917 4.35302 6.0875C4.76675 5.69583 5.26411 5.5 5.8451 5.5H7.95777C7.95777 4.95 8.16464 4.47917 8.57837 4.0875C8.9921 3.69583 9.48946 3.5 10.0704 3.5H16.4085C16.9895 3.5 17.4868 3.69583 17.9006 4.0875C18.3143 4.47917 18.5212 4.95 18.5212 5.5H20.6338C21.2148 5.5 21.7122 5.69583 22.1259 6.0875C22.5396 6.47917 22.7465 6.95 22.7465 7.5V8.5C22.7465 9.76667 22.302 10.8708 21.4129 11.8125C20.5238 12.7542 19.419 13.3 18.0986 13.45C17.7817 14.2167 17.2844 14.8542 16.6065 15.3625C15.9287 15.8708 15.1585 16.2167 14.2958 16.4V19.5H17.4648C17.7641 19.5 18.015 19.5958 18.2175 19.7875C18.4199 19.9792 18.5212 20.2167 18.5212 20.5C18.5212 20.7833 18.4199 21.0208 18.2175 21.2125C18.015 21.4042 17.7641 21.5 17.4648 21.5H9.01411C8.71482 21.5 8.46394 21.4042 8.26147 21.2125C8.05901 21.0208 7.95777 20.7833 7.95777 20.5C7.95777 20.2167 8.05901 19.9792 8.26147 19.7875C8.46394 19.5958 8.71482 19.5 9.01411 19.5H12.1831ZM7.95777 11.3V7.5H5.8451V8.5C5.8451 9.13333 6.03876 9.70417 6.42608 10.2125C6.81341 10.7208 7.32397 11.0833 7.95777 11.3ZM13.2395 14.5C14.1197 14.5 14.868 14.2083 15.4842 13.625C16.1004 13.0417 16.4085 12.3333 16.4085 11.5V5.5H10.0704V11.5C10.0704 12.3333 10.3785 13.0417 10.9947 13.625C11.6109 14.2083 12.3592 14.5 13.2395 14.5ZM18.5212 11.3C19.155 11.0833 19.6655 10.7208 20.0528 10.2125C20.4402 9.70417 20.6338 9.13333 20.6338 8.5V7.5H18.5212V11.3Z" fill="#262A2E"/>
</g>
</svg>
