<svg width="128" height="128" viewBox="0 0 128 128" fill="none" xmlns="http://www.w3.org/2000/svg">
<path d="M122.492 66.1594H105.224C102.181 66.1594 99.7152 68.6256 99.7152 71.6678V89.3747C99.7152 92.417 102.181 94.8832 105.224 94.8832H122.492C125.534 94.8832 128 92.417 128 89.3747V71.6678C128 68.6256 125.534 66.1594 122.492 66.1594Z" fill="#C3262E"/>
<path d="M89.2224 66.1594H71.9546C68.9123 66.1594 66.4461 68.6256 66.4461 71.6678V89.3747C66.4461 92.417 68.9123 94.8832 71.9546 94.8832H89.2224C92.2646 94.8832 94.7309 92.417 94.7309 89.3747V71.6678C94.7309 68.6256 92.2646 66.1594 89.2224 66.1594Z" fill="#666666"/>
<path d="M55.9258 66.1594H38.6579C35.6157 66.1594 33.1494 68.6256 33.1494 71.6678V89.3747C33.1494 92.417 35.6157 94.8832 38.6579 94.8832H55.9258C58.968 94.8832 61.4342 92.417 61.4342 89.3747V71.6678C61.4342 68.6256 58.968 66.1594 55.9258 66.1594Z" fill="#999999"/>
<path d="M55.9258 99.2762H38.6579C35.6157 99.2762 33.1494 101.742 33.1494 104.785V122.492C33.1494 125.534 35.6157 128 38.6579 128H55.9258C58.968 128 61.4342 125.534 61.4342 122.492V104.785C61.4342 101.742 58.968 99.2762 55.9258 99.2762Z" fill="#4D4D4D"/>
<path d="M89.2224 33.0419H71.9546C68.9123 33.0419 66.4461 35.5081 66.4461 38.5504V56.2573C66.4461 59.2995 68.9123 61.7658 71.9546 61.7658H89.2224C92.2646 61.7658 94.7309 59.2995 94.7309 56.2573V38.5504C94.7309 35.5081 92.2646 33.0419 89.2224 33.0419Z" fill="#EB1C26"/>
<path d="M55.9258 33.0419H38.6579C35.6157 33.0419 33.1494 35.5081 33.1494 38.5504V56.2573C33.1494 59.2995 35.6157 61.7658 38.6579 61.7658H55.9258C58.968 61.7658 61.4342 59.2995 61.4342 56.2573V38.5504C61.4342 35.5081 58.968 33.0419 55.9258 33.0419Z" fill="#F25827"/>
<path d="M89.2224 0H71.9546C68.9123 0 66.4461 2.46623 66.4461 5.50848V23.2154C66.4461 26.2576 68.9123 28.7238 71.9546 28.7238H89.2224C92.2646 28.7238 94.7309 26.2576 94.7309 23.2154V5.50848C94.7309 2.46623 92.2646 0 89.2224 0Z" fill="#C2272D"/>
<path d="M22.7763 33.0419H5.50848C2.46623 33.0419 0 35.5081 0 38.5504V56.2573C0 59.2995 2.46623 61.7658 5.50848 61.7658H22.7763C25.8186 61.7658 28.2848 59.2995 28.2848 56.2573V38.5504C28.2848 35.5081 25.8186 33.0419 22.7763 33.0419Z" fill="#808080"/>
</svg>
