<svg width="24" height="24" viewBox="0 0 24 24" fill="none" xmlns="http://www.w3.org/2000/svg">
    <path d="M21.9771 7.86744C21.9301 6.80157 21.7578 6.0688 21.5109 5.43384C21.2561 4.75984 20.8643 4.15642 20.3509 3.65479C19.8492 3.14535 19.2418 2.7495 18.5756 2.49876C17.937 2.25185 17.208 2.07948 16.1422 2.03249C15.0683 1.98151 14.7274 1.96973 12.0039 1.96973C9.28039 1.96973 8.93949 1.98151 7.86964 2.02851C6.80377 2.0755 6.071 2.24802 5.43619 2.49478C4.76204 2.7495 4.15862 3.14137 3.65699 3.65479C3.14755 4.15642 2.75185 4.76382 2.50095 5.43001C2.25404 6.0688 2.08168 6.79759 2.03469 7.86346C1.98371 8.93729 1.97192 9.27819 1.97192 12.0017C1.97192 14.7252 1.98371 15.0661 2.03071 16.136C2.0777 17.2019 2.25022 17.9346 2.49713 18.5696C2.75185 19.2436 3.14755 19.847 3.65699 20.3486C4.15862 20.8581 4.76602 21.2539 5.43221 21.5047C6.071 21.7516 6.79979 21.924 7.86581 21.9709C8.93551 22.0181 9.27656 22.0297 12.0001 22.0297C14.7236 22.0297 15.0645 22.0181 16.1344 21.9709C17.2002 21.924 17.933 21.7516 18.5678 21.5047C19.916 20.9835 20.9818 19.9176 21.5031 18.5696C21.7498 17.9308 21.9223 17.2019 21.9693 16.136C22.0163 15.0661 22.0281 14.7252 22.0281 12.0017C22.0281 9.27819 22.0241 8.93729 21.9771 7.86744ZM20.1707 16.0576C20.1275 17.0373 19.963 17.5663 19.8258 17.919C19.4887 18.7929 18.7951 19.4865 17.9212 19.8236C17.5685 19.9608 17.0357 20.1253 16.0598 20.1683C15.0018 20.2155 14.6844 20.2271 12.0079 20.2271C9.33136 20.2271 9.01006 20.2155 7.95582 20.1683C6.97613 20.1253 6.4471 19.9608 6.09442 19.8236C5.65953 19.6629 5.26367 19.4081 4.94237 19.0751C4.60927 18.7498 4.35455 18.3579 4.19382 17.923C4.05667 17.5703 3.89211 17.0373 3.8491 16.0616C3.80195 15.0035 3.79031 14.6861 3.79031 12.0095C3.79031 9.33299 3.80195 9.01168 3.8491 7.9576C3.89211 6.97791 4.05667 6.44888 4.19382 6.0962C4.35455 5.66115 4.60927 5.26545 4.94635 4.94399C5.27148 4.6109 5.66335 4.35618 6.0984 4.19561C6.45108 4.05845 6.98409 3.89389 7.9598 3.85072C9.01786 3.80373 9.33534 3.79194 12.0117 3.79194C14.6922 3.79194 15.0096 3.80373 16.0638 3.85072C17.0435 3.89389 17.5725 4.05845 17.9252 4.19561C18.3601 4.35618 18.756 4.6109 19.0773 4.94399C19.4104 5.26928 19.6651 5.66115 19.8258 6.0962C19.963 6.44888 20.1275 6.98174 20.1707 7.9576C20.2177 9.01566 20.2295 9.33299 20.2295 12.0095C20.2295 14.6861 20.2177 14.9996 20.1707 16.0576Z" fill="#262A2E"/>
    <path d="M12.002 6.84961C9.15711 6.84961 6.84888 9.15769 6.84888 12.0028C6.84888 14.8478 9.15711 17.1559 12.002 17.1559C14.8471 17.1559 17.1552 14.8478 17.1552 12.0028C17.1552 9.15769 14.8471 6.84961 12.002 6.84961ZM12.002 15.3455C10.1564 15.3455 8.65931 13.8486 8.65931 12.0028C8.65931 10.157 10.1564 8.66004 12.002 8.66004C13.8478 8.66004 15.3448 10.157 15.3448 12.0028C15.3448 13.8486 13.8478 15.3455 12.002 15.3455Z" fill="#262A2E"/>
    <path d="M18.5627 6.6442C18.5627 7.30842 18.0242 7.84699 17.3598 7.84699C16.6956 7.84699 16.157 7.30842 16.157 6.6442C16.157 5.97982 16.6956 5.44141 17.3598 5.44141C18.0242 5.44141 18.5627 5.97982 18.5627 6.6442Z" fill="#262A2E"/>
</svg>
