<svg width="71" height="26" viewBox="0 0 71 26" fill="none" xmlns="http://www.w3.org/2000/svg">
    <path d="M7.62348 13.0195H18.4069C21.3825 13.0195 23.7989 15.4299 23.7989 18.3996C23.7989 21.3686 21.3832 23.7796 18.4069 23.7796H2.23145V18.3996C2.23145 15.4306 4.6472 13.0195 7.62348 13.0195Z" fill="#E6F7FC"/>
    <path d="M22.209 14.5869L11.4364 3.83592C9.33086 1.73466 5.91728 1.73456 3.81191 3.83569C1.70655 5.93682 1.70665 9.34354 3.81214 11.4448L14.5848 22.1958C16.6903 24.2971 20.1039 24.2972 22.2093 22.196C24.3146 20.0949 24.3145 16.6882 22.209 14.5869Z" fill="#C2E9F4"/>
    <path d="M18.4069 2.26074H7.62348C4.64554 2.26074 2.23145 4.66932 2.23145 7.64045C2.23145 10.6116 4.64554 13.0202 7.62348 13.0202H18.4069C21.3848 13.0202 23.7989 10.6116 23.7989 7.64045C23.7989 4.66932 21.3848 2.26074 18.4069 2.26074Z" fill="#8EDBF3"/>
    <path d="M30.7495 12.9873H41.5329C44.5085 12.9873 46.9249 15.3977 46.9249 18.3673C46.9249 21.3363 44.5092 23.7474 41.5329 23.7474H25.3574V18.3673C25.3574 15.3983 27.7732 12.9873 30.7495 12.9873Z" fill="#E6F7FC"/>
    <path d="M45.335 14.5557L34.5623 3.80467C32.4568 1.70341 29.0433 1.70331 26.9379 3.80444C24.8325 5.90558 24.8326 9.31229 26.9381 11.4136L37.7108 22.1646C39.8163 24.2658 43.2299 24.2659 45.3352 22.1648C47.4406 20.0637 47.4405 16.6569 45.335 14.5557Z" fill="#C2E9F4"/>
    <path d="M41.5348 2.22852H30.7514C27.7735 2.22852 25.3594 4.63709 25.3594 7.60823C25.3594 10.5794 27.7735 12.9879 30.7514 12.9879H41.5348C44.5128 12.9879 46.9269 10.5794 46.9269 7.60823C46.9269 4.63709 44.5128 2.22852 41.5348 2.22852Z" fill="#8EDBF3"/>
    <path d="M59.2705 7.64078V18.4002C59.2705 21.3692 56.8548 23.7802 53.8785 23.7802H48.4864V7.64078C48.4864 4.67177 50.9022 2.26074 53.8785 2.26074C56.8541 2.26074 59.2705 4.67112 59.2705 7.64078Z" fill="#E6F7FC"/>
    <path d="M48.4863 7.64062H64.6618C67.6374 7.64062 70.0538 10.051 70.0538 13.0207C70.0538 15.9897 67.6381 18.4007 64.6618 18.4007H53.8784C50.9027 18.4007 48.4863 15.9903 48.4863 13.0207V7.64062Z" fill="#C2E9F4"/>
    <path d="M64.6618 2.26074H53.8784C50.9004 2.26074 48.4863 4.66932 48.4863 7.64045C48.4863 10.6116 50.9004 13.0202 53.8784 13.0202H64.6618C67.6397 13.0202 70.0538 10.6116 70.0538 7.64045C70.0538 4.66932 67.6397 2.26074 64.6618 2.26074Z" fill="#8EDBF3"/>
</svg>
