<svg xmlns="http://www.w3.org/2000/svg" width="206" height="93" viewBox="0 0 206 93" fill="none">
    <mask id="path-1-inside-1_493_904" fill="white">
        <path fill-rule="evenodd" clip-rule="evenodd" d="M35.4216 0C27.9503 0 21.8937 6.05663 21.8937 13.5279V37.5842L0.25 46.9434L21.8937 56.3025V79.4721C21.8937 86.9434 27.9503 93 35.4216 93H191.722C199.193 93 205.25 86.9434 205.25 79.4721V13.5279C205.25 6.05663 199.193 0 191.722 0H35.4216Z"/>
    </mask>
    <path fill-rule="evenodd" clip-rule="evenodd" d="M35.4216 0C27.9503 0 21.8937 6.05663 21.8937 13.5279V37.5842L0.25 46.9434L21.8937 56.3025V79.4721C21.8937 86.9434 27.9503 93 35.4216 93H191.722C199.193 93 205.25 86.9434 205.25 79.4721V13.5279C205.25 6.05663 199.193 0 191.722 0H35.4216Z" fill="white"/>
    <path d="M21.8937 37.5842L22.4306 38.8259L23.2465 38.4731V37.5842H21.8937ZM0.25 46.9434L-0.286922 45.7017L-3.15837 46.9434L-0.286922 48.185L0.25 46.9434ZM21.8937 56.3025H23.2465V55.4137L22.4306 55.0609L21.8937 56.3025ZM23.2465 13.5279C23.2465 6.80375 28.6975 1.35279 35.4216 1.35279V-1.35279C27.2032 -1.35279 20.5409 5.3095 20.5409 13.5279H23.2465ZM23.2465 37.5842V13.5279H20.5409V37.5842H23.2465ZM0.786922 48.185L22.4306 38.8259L21.3568 36.3425L-0.286922 45.7017L0.786922 48.185ZM22.4306 55.0609L0.786922 45.7017L-0.286922 48.185L21.3568 57.5442L22.4306 55.0609ZM23.2465 79.4721V56.3025H20.5409V79.4721H23.2465ZM35.4216 91.6472C28.6975 91.6472 23.2465 86.1963 23.2465 79.4721H20.5409C20.5409 87.6905 27.2032 94.3528 35.4216 94.3528V91.6472ZM191.722 91.6472H35.4216V94.3528H191.722V91.6472ZM203.897 79.4721C203.897 86.1963 198.446 91.6472 191.722 91.6472V94.3528C199.941 94.3528 206.603 87.6905 206.603 79.4721H203.897ZM203.897 13.5279V79.4721H206.603V13.5279H203.897ZM191.722 1.35279C198.446 1.35279 203.897 6.80375 203.897 13.5279H206.603C206.603 5.30951 199.941 -1.35279 191.722 -1.35279V1.35279ZM35.4216 1.35279H191.722V-1.35279H35.4216V1.35279Z" fill="#D6DCE1" mask="url(#path-1-inside-1_493_904)"/>
</svg>