<svg xmlns="http://www.w3.org/2000/svg" width="34" height="35" viewBox="0 0 34 35" fill="none">
    <mask id="mask0_395_43" style="mask-type:alpha" maskUnits="userSpaceOnUse" x="0" y="0" width="34" height="35">
        <rect y="0.5" width="34" height="34" fill="#D9D9D9"/>
    </mask>
    <g mask="url(#mask0_395_43)">
        <path d="M16.8979 21.7147C16.709 21.7147 16.5319 21.6852 16.3667 21.6262C16.2014 21.5671 16.0479 21.4668 15.9063 21.3251L9.38958 14.8085C9.12986 14.5487 9 14.2182 9 13.8168C9 13.4154 9.12986 13.0849 9.38958 12.8251C9.64931 12.5654 9.97986 12.4355 10.3813 12.4355C10.7826 12.4355 11.1132 12.5654 11.3729 12.8251L16.8979 18.3501L22.4229 12.8251C22.6826 12.5654 23.0132 12.4355 23.4146 12.4355C23.816 12.4355 24.1465 12.5654 24.4063 12.8251C24.666 13.0849 24.7958 13.4154 24.7958 13.8168C24.7958 14.2182 24.666 14.5487 24.4063 14.8085L17.8896 21.3251C17.7479 21.4668 17.5944 21.5671 17.4292 21.6262C17.2639 21.6852 17.0868 21.7147 16.8979 21.7147Z" fill="#262A2E"/>
    </g>
</svg>